<svg width="25" height="24" viewBox="0 0 25 24" fill="none" xmlns="http://www.w3.org/2000/svg">
<path d="M19.3945 5.10574C17.566 3.27724 15.086 2.25 12.5001 2.25C9.91423 2.25 7.43425 3.27724 5.60574 5.10574C3.77724 6.93425 2.75 9.41423 2.75 12.0001C2.75 14.586 3.77724 17.066 5.60574 18.8945C7.43425 20.723 9.91423 21.7502 12.5001 21.7502C15.086 21.7502 17.566 20.723 19.3945 18.8945C21.223 17.066 22.2502 14.586 22.2502 12.0001C22.2502 9.41423 21.223 6.93425 19.3945 5.10574ZM18.3342 6.16699C18.7187 6.55322 19.0642 6.97653 19.3654 7.43074L16.2079 11.1564L13.5904 3.82324C15.3875 4.05799 17.0559 4.88229 18.3342 6.16699ZM15.0867 12.4689L13.3842 14.4723L10.7976 14.0036L9.91356 11.5314L11.6161 9.52793L14.2026 9.99668L15.0867 12.4689ZM6.66606 6.16699C8.08249 4.74286 9.97299 3.88903 11.9779 3.76793L13.6195 8.36168L5.96574 6.96762C6.18172 6.68596 6.41564 6.41853 6.66606 6.16699ZM4.87356 15.1445C4.4285 14.0577 4.21949 12.8887 4.26038 11.7149C4.30127 10.5412 4.59113 9.38959 5.11074 8.33637L9.91168 9.21293L4.87356 15.1445ZM6.66606 17.8332C6.28149 17.447 5.93606 17.0237 5.63481 16.5695L8.79231 12.8439L11.4098 20.1732C9.61322 19.9395 7.94488 19.1166 6.66606 17.8332ZM18.3342 17.8332C16.9177 19.2574 15.0273 20.1112 13.0223 20.2323L11.3807 15.6386L19.0345 17.0364C18.8184 17.3167 18.5845 17.5829 18.3342 17.8332ZM15.0886 14.7873L20.1267 8.85574C20.5717 9.94258 20.7807 11.1116 20.7399 12.2853C20.699 13.459 20.4091 14.6106 19.8895 15.6639L15.0886 14.7873Z" fill="white"/>
</svg>
