<svg width="25" height="24" viewBox="0 0 25 24" fill="none" xmlns="http://www.w3.org/2000/svg">
<path d="M21.5 11.9996C21.5002 14.3658 20.5686 16.6368 18.9069 18.3212C17.2451 20.0056 14.9869 20.9678 12.6209 20.9996H12.5C10.2015 21.0054 7.98901 20.1258 6.32187 18.5434C6.25028 18.4757 6.19273 18.3945 6.1525 18.3046C6.11227 18.2146 6.09016 18.1176 6.08741 18.0191C6.08467 17.9206 6.10136 17.8225 6.13652 17.7305C6.17168 17.6384 6.22463 17.5542 6.29234 17.4826C6.36006 17.411 6.44121 17.3535 6.53116 17.3132C6.62112 17.273 6.71812 17.2509 6.81662 17.2482C6.91512 17.2454 7.0132 17.2621 7.10525 17.2973C7.19731 17.3324 7.28153 17.3854 7.35312 17.4531C8.42544 18.4644 9.77195 19.1372 11.2245 19.3877C12.677 19.6381 14.1711 19.4551 15.5202 18.8613C16.8692 18.2675 18.0134 17.2894 18.8098 16.0492C19.6062 14.8089 20.0195 13.3614 19.9981 11.8877C19.9766 10.4139 19.5214 8.97906 18.6892 7.76249C17.8571 6.54591 16.6849 5.6015 15.3192 5.04724C13.9534 4.49298 12.4546 4.35343 11.01 4.64603C9.56537 4.93864 8.239 5.65042 7.19656 6.69246C7.1889 6.70074 7.18076 6.70857 7.17219 6.7159L4.68031 8.99965H7.25C7.44891 8.99965 7.63968 9.07866 7.78033 9.21932C7.92098 9.35997 8 9.55073 8 9.74965C8 9.94856 7.92098 10.1393 7.78033 10.28C7.63968 10.4206 7.44891 10.4996 7.25 10.4996H2.75C2.55109 10.4996 2.36032 10.4206 2.21967 10.28C2.07902 10.1393 2 9.94856 2 9.74965V5.24965C2 5.05073 2.07902 4.85997 2.21967 4.71932C2.36032 4.57866 2.55109 4.49965 2.75 4.49965C2.94891 4.49965 3.13968 4.57866 3.28033 4.71932C3.42098 4.85997 3.5 5.05073 3.5 5.24965V8.0434L6.14844 5.62465C7.40842 4.36956 9.012 3.5159 10.7567 3.17142C12.5015 2.82695 14.3092 3.00711 15.9516 3.68916C17.5941 4.37122 18.9976 5.52458 19.9851 7.00366C20.9726 8.48274 21.4997 10.2212 21.5 11.9996Z" fill="white"/>
</svg>
