<svg width="25" height="24" viewBox="0 0 25 24" fill="none" xmlns="http://www.w3.org/2000/svg">
<path d="M21.4996 12.0004C21.4996 12.1993 21.4206 12.3901 21.2799 12.5307C21.1393 12.6714 20.9485 12.7504 20.7496 12.7504H6.05993L11.5302 18.2198C11.5999 18.2895 11.6552 18.3722 11.6929 18.4632C11.7306 18.5543 11.75 18.6519 11.75 18.7504C11.75 18.849 11.7306 18.9465 11.6929 19.0376C11.6552 19.1286 11.5999 19.2114 11.5302 19.281C11.4606 19.3507 11.3778 19.406 11.2868 19.4437C11.1957 19.4814 11.0982 19.5008 10.9996 19.5008C10.9011 19.5008 10.8035 19.4814 10.7124 19.4437C10.6214 19.406 10.5387 19.3507 10.469 19.281L3.71899 12.531C3.64926 12.4614 3.59394 12.3787 3.55619 12.2876C3.51845 12.1966 3.49902 12.099 3.49902 12.0004C3.49902 11.9019 3.51845 11.8043 3.55619 11.7132C3.59394 11.6222 3.64926 11.5394 3.71899 11.4698L10.469 4.71979C10.6097 4.57906 10.8006 4.5 10.9996 4.5C11.1986 4.5 11.3895 4.57906 11.5302 4.71979C11.671 4.86052 11.75 5.05139 11.75 5.25042C11.75 5.44944 11.671 5.64031 11.5302 5.78104L6.05993 11.2504H20.7496C20.9485 11.2504 21.1393 11.3294 21.2799 11.4701C21.4206 11.6107 21.4996 11.8015 21.4996 12.0004Z" fill="white"/>
</svg>
