<svg width="25" height="24" viewBox="0 0 25 24" fill="none" xmlns="http://www.w3.org/2000/svg">
<path d="M17.75 3H7.25C6.85218 3 6.47064 3.15804 6.18934 3.43934C5.90804 3.72064 5.75 4.10218 5.75 4.5V21C5.75007 21.1338 5.78595 21.2652 5.85393 21.3805C5.92191 21.4958 6.0195 21.5908 6.13659 21.6557C6.25367 21.7206 6.38598 21.7529 6.51978 21.7494C6.65358 21.7458 6.784 21.7066 6.8975 21.6356L12.5 18.1341L18.1034 21.6356C18.2169 21.7063 18.3472 21.7454 18.4809 21.7488C18.6146 21.7522 18.7467 21.7198 18.8636 21.655C18.9806 21.5902 19.0781 21.4953 19.146 21.3801C19.2139 21.2649 19.2498 21.1337 19.25 21V4.5C19.25 4.10218 19.092 3.72064 18.8107 3.43934C18.5294 3.15804 18.1478 3 17.75 3ZM17.75 19.6472L12.8966 16.6144C12.7774 16.5399 12.6396 16.5004 12.4991 16.5004C12.3585 16.5004 12.2208 16.5399 12.1016 16.6144L7.25 19.6472V4.5H17.75V19.6472Z" fill="white"/>
</svg>
