<svg width="25" height="24" viewBox="0 0 25 24" fill="none" xmlns="http://www.w3.org/2000/svg">
<path d="M15.4998 3.75C13.9677 3.75118 12.466 4.17857 11.1629 4.98437C9.85972 5.79017 8.80642 6.94262 8.12078 8.31281C7.30512 8.19385 6.47369 8.24424 5.67836 8.46082C4.88303 8.67741 4.14086 9.05555 3.49814 9.57166C2.85542 10.0878 2.32594 10.7308 1.94272 11.4606C1.5595 12.1904 1.33077 12.9913 1.27079 13.8134C1.21081 14.6355 1.32087 15.4612 1.5941 16.2388C1.86733 17.0165 2.29787 17.7296 2.85888 18.3335C3.41988 18.9375 4.0993 19.4193 4.85477 19.749C5.61024 20.0788 6.42555 20.2493 7.24984 20.25H15.4998C17.6879 20.25 19.7863 19.3808 21.3335 17.8336C22.8806 16.2865 23.7498 14.188 23.7498 12C23.7498 9.81196 22.8806 7.71354 21.3335 6.16637C19.7863 4.61919 17.6879 3.75 15.4998 3.75ZM15.4998 18.75H7.24984C6.05637 18.75 4.91178 18.2759 4.06786 17.432C3.22395 16.5881 2.74984 15.4435 2.74984 14.25C2.74984 13.0565 3.22395 11.9119 4.06786 11.068C4.91178 10.2241 6.05637 9.75 7.24984 9.75C7.35297 9.75 7.45609 9.75 7.55828 9.76031C7.35318 10.4892 7.24939 11.2428 7.24984 12C7.24984 12.1989 7.32886 12.3897 7.46951 12.5303C7.61017 12.671 7.80093 12.75 7.99984 12.75C8.19876 12.75 8.38952 12.671 8.53017 12.5303C8.67083 12.3897 8.74984 12.1989 8.74984 12C8.74984 10.665 9.14572 9.35993 9.88742 8.2499C10.6291 7.13987 11.6833 6.2747 12.9167 5.76381C14.1501 5.25292 15.5073 5.11925 16.8167 5.3797C18.1261 5.64015 19.3288 6.28302 20.2728 7.22703C21.2168 8.17103 21.8597 9.37377 22.1201 10.6831C22.3806 11.9925 22.2469 13.3497 21.736 14.5831C21.2251 15.8165 20.36 16.8707 19.2499 17.6124C18.1399 18.3541 16.8349 18.75 15.4998 18.75ZM14.7498 12V8.25C14.7498 8.05109 14.8289 7.86032 14.9695 7.71967C15.1102 7.57902 15.3009 7.5 15.4998 7.5C15.6988 7.5 15.8895 7.57902 16.0302 7.71967C16.1708 7.86032 16.2498 8.05109 16.2498 8.25V12C16.2498 12.1989 16.1708 12.3897 16.0302 12.5303C15.8895 12.671 15.6988 12.75 15.4998 12.75C15.3009 12.75 15.1102 12.671 14.9695 12.5303C14.8289 12.3897 14.7498 12.1989 14.7498 12ZM16.6248 15.375C16.6248 15.5975 16.5589 15.815 16.4352 16C16.3116 16.185 16.1359 16.3292 15.9304 16.4144C15.7248 16.4995 15.4986 16.5218 15.2804 16.4784C15.0621 16.435 14.8617 16.3278 14.7043 16.1705C14.547 16.0132 14.4399 15.8127 14.3965 15.5945C14.3531 15.3762 14.3753 15.15 14.4605 14.9445C14.5456 14.7389 14.6898 14.5632 14.8748 14.4396C15.0598 14.316 15.2773 14.25 15.4998 14.25C15.7982 14.25 16.0844 14.3685 16.2953 14.5795C16.5063 14.7905 16.6248 15.0766 16.6248 15.375Z" fill="white"/>
</svg>
