<svg width="25" height="24" viewBox="0 0 25 24" fill="none" xmlns="http://www.w3.org/2000/svg">
<path d="M17.2198 15.5306L15.5004 13.8103V19.5C15.5004 19.6989 15.4214 19.8897 15.2807 20.0303C15.1401 20.171 14.9493 20.25 14.7504 20.25C14.5515 20.25 14.3607 20.171 14.2201 20.0303C14.0794 19.8897 14.0004 19.6989 14.0004 19.5V13.8103L12.281 15.5306C12.2113 15.6003 12.1286 15.6556 12.0376 15.6933C11.9465 15.731 11.8489 15.7504 11.7504 15.7504C11.6519 15.7504 11.5543 15.731 11.4632 15.6933C11.3722 15.6556 11.2895 15.6003 11.2198 15.5306C11.1501 15.4609 11.0948 15.3782 11.0571 15.2872C11.0194 15.1961 11 15.0985 11 15C11 14.9015 11.0194 14.8039 11.0571 14.7128C11.0948 14.6218 11.1501 14.5391 11.2198 14.4694L14.2198 11.4694C14.2894 11.3996 14.3721 11.3443 14.4632 11.3066C14.5542 11.2688 14.6518 11.2494 14.7504 11.2494C14.849 11.2494 14.9466 11.2688 15.0376 11.3066C15.1287 11.3443 15.2114 11.3996 15.281 11.4694L18.281 14.4694C18.3507 14.5391 18.406 14.6218 18.4437 14.7128C18.4814 14.8039 18.5008 14.9015 18.5008 15C18.5008 15.0985 18.4814 15.1961 18.4437 15.2872C18.406 15.3782 18.3507 15.4609 18.281 15.5306C18.2113 15.6003 18.1286 15.6556 18.0376 15.6933C17.9465 15.731 17.8489 15.7504 17.7504 15.7504C17.6519 15.7504 17.5543 15.731 17.4632 15.6933C17.3722 15.6556 17.2895 15.6003 17.2198 15.5306ZM15.5004 3.75C13.9681 3.75116 12.4664 4.17864 11.1632 4.98463C9.85999 5.79061 8.80676 6.94331 8.12134 8.31375C7.30527 8.19383 6.47323 8.24346 5.67721 8.45954C4.88118 8.67563 4.13825 9.05352 3.49483 9.56962C2.8514 10.0857 2.3213 10.7289 1.93763 11.4591C1.55396 12.1893 1.32496 12.9907 1.26493 13.8134C1.20491 14.636 1.31515 15.4622 1.58876 16.2403C1.86238 17.0185 2.2935 17.7318 2.85519 18.3359C3.41688 18.9399 4.09709 19.4216 4.85332 19.751C5.60955 20.0803 6.42557 20.2502 7.2504 20.25H11.0004C11.1993 20.25 11.3901 20.171 11.5307 20.0303C11.6714 19.8897 11.7504 19.6989 11.7504 19.5C11.7504 19.3011 11.6714 19.1103 11.5307 18.9697C11.3901 18.829 11.1993 18.75 11.0004 18.75H7.2504C6.05693 18.75 4.91234 18.2759 4.06842 17.432C3.22451 16.5881 2.7504 15.4435 2.7504 14.25C2.7504 13.0565 3.22451 11.9119 4.06842 11.068C4.91234 10.2241 6.05693 9.75 7.2504 9.75C7.35353 9.75 7.45665 9.75 7.55884 9.76125C7.35382 10.4898 7.25003 11.2431 7.2504 12C7.2504 12.1989 7.32942 12.3897 7.47007 12.5303C7.61072 12.671 7.80149 12.75 8.0004 12.75C8.19931 12.75 8.39008 12.671 8.53073 12.5303C8.67138 12.3897 8.7504 12.1989 8.7504 12C8.75059 10.7831 9.07974 9.58886 9.70304 8.54369C10.3263 7.49852 11.2206 6.64129 12.2912 6.06272C13.3618 5.48415 14.5688 5.20576 15.7847 5.25701C17.0005 5.30826 18.1799 5.68724 19.198 6.35385C20.216 7.02046 21.035 7.94989 21.5681 9.04381C22.1013 10.1377 22.3288 11.3554 22.2265 12.568C22.1243 13.7806 21.6962 14.9431 20.9874 15.9323C20.2787 16.9215 19.3157 17.7007 18.2004 18.1875C18.042 18.2562 17.9122 18.3773 17.8328 18.5306C17.7534 18.6839 17.7293 18.8598 17.7645 19.0288C17.7998 19.1978 17.8922 19.3494 18.0263 19.4581C18.1603 19.5669 18.3278 19.626 18.5004 19.6256C18.6038 19.6255 18.7059 19.6038 18.8004 19.5619C20.5379 18.804 21.9614 17.4708 22.8315 15.7867C23.7015 14.1025 23.9651 12.1701 23.5778 10.3145C23.1905 8.45888 22.1761 6.79322 20.705 5.59768C19.2339 4.40215 17.396 3.74967 15.5004 3.75Z" fill="white"/>
</svg>
