<svg width="25" height="24" viewBox="0 0 25 24" fill="none" xmlns="http://www.w3.org/2000/svg">
<path d="M15.4998 3.75C13.9677 3.75118 12.466 4.17857 11.1629 4.98437C9.85972 5.79017 8.80642 6.94262 8.12078 8.31281C7.30512 8.19385 6.47369 8.24424 5.67836 8.46082C4.88303 8.67741 4.14086 9.05555 3.49814 9.57166C2.85542 10.0878 2.32594 10.7308 1.94272 11.4606C1.5595 12.1904 1.33077 12.9913 1.27079 13.8134C1.21081 14.6355 1.32087 15.4612 1.5941 16.2388C1.86733 17.0165 2.29787 17.7296 2.85888 18.3335C3.41988 18.9375 4.0993 19.4193 4.85477 19.749C5.61024 20.0788 6.42555 20.2493 7.24984 20.25H15.4998C17.6879 20.25 19.7863 19.3808 21.3335 17.8336C22.8806 16.2865 23.7498 14.188 23.7498 12C23.7498 9.81196 22.8806 7.71354 21.3335 6.16637C19.7863 4.61919 17.6879 3.75 15.4998 3.75ZM15.4998 18.75H7.24984C6.05637 18.75 4.91178 18.2759 4.06786 17.432C3.22395 16.5881 2.74984 15.4435 2.74984 14.25C2.74984 13.0565 3.22395 11.9119 4.06786 11.068C4.91178 10.2241 6.05637 9.75 7.24984 9.75C7.35297 9.75 7.45609 9.75 7.55828 9.76031C7.35318 10.4892 7.24939 11.2428 7.24984 12C7.24984 12.1989 7.32886 12.3897 7.46951 12.5303C7.61017 12.671 7.80093 12.75 7.99984 12.75C8.19876 12.75 8.38952 12.671 8.53017 12.5303C8.67083 12.3897 8.74984 12.1989 8.74984 12C8.74984 10.665 9.14572 9.35993 9.88742 8.2499C10.6291 7.13987 11.6833 6.2747 12.9167 5.76381C14.1501 5.25292 15.5073 5.11925 16.8167 5.3797C18.1261 5.64015 19.3288 6.28302 20.2728 7.22703C21.2168 8.17103 21.8597 9.37377 22.1201 10.6831C22.3806 11.9925 22.2469 13.3497 21.736 14.5831C21.2251 15.8165 20.36 16.8707 19.2499 17.6124C18.1399 18.3541 16.8349 18.75 15.4998 18.75ZM19.0305 9.96937C19.1002 10.039 19.1555 10.1217 19.1933 10.2128C19.231 10.3038 19.2504 10.4014 19.2504 10.5C19.2504 10.5986 19.231 10.6962 19.1933 10.7872C19.1555 10.8783 19.1002 10.961 19.0305 11.0306L14.5305 15.5306C14.4608 15.6004 14.3781 15.6557 14.287 15.6934C14.196 15.7312 14.0984 15.7506 13.9998 15.7506C13.9013 15.7506 13.8037 15.7312 13.7126 15.6934C13.6216 15.6557 13.5389 15.6004 13.4692 15.5306L11.2192 13.2806C11.0785 13.1399 10.9994 12.949 10.9994 12.75C10.9994 12.551 11.0785 12.3601 11.2192 12.2194C11.3599 12.0786 11.5508 11.9996 11.7498 11.9996C11.9489 11.9996 12.1397 12.0786 12.2805 12.2194L13.9998 13.9397L17.9692 9.96937C18.0389 9.89964 18.1216 9.84432 18.2126 9.80658C18.3037 9.76884 18.4013 9.74941 18.4998 9.74941C18.5984 9.74941 18.696 9.76884 18.787 9.80658C18.8781 9.84432 18.9608 9.89964 19.0305 9.96937Z" fill="white"/>
</svg>
