<svg width="25" height="24" viewBox="0 0 25 24" fill="none" xmlns="http://www.w3.org/2000/svg">
<path d="M20.75 6.75H12.7503L10.1497 4.8C9.88967 4.60599 9.57411 4.5008 9.24969 4.5H4.25C3.85218 4.5 3.47064 4.65804 3.18934 4.93934C2.90804 5.22064 2.75 5.60218 2.75 6V18.75C2.75 19.1478 2.90804 19.5294 3.18934 19.8107C3.47064 20.092 3.85218 20.25 4.25 20.25H20.8334C21.209 20.2495 21.569 20.1001 21.8346 19.8346C22.1001 19.569 22.2495 19.209 22.25 18.8334V8.25C22.25 7.85218 22.092 7.47064 21.8107 7.18934C21.5294 6.90804 21.1478 6.75 20.75 6.75ZM20.75 18.75H4.25V6H9.24969L12.05 8.1C12.1798 8.19737 12.3377 8.25 12.5 8.25H20.75V18.75Z" fill="white"/>
</svg>
