<svg width="25" height="24" viewBox="0 0 25 24" fill="none" xmlns="http://www.w3.org/2000/svg">
<path d="M20 12.75H5C4.60218 12.75 4.22064 12.908 3.93934 13.1893C3.65804 13.4706 3.5 13.8522 3.5 14.25V18.75C3.5 19.1478 3.65804 19.5294 3.93934 19.8107C4.22064 20.092 4.60218 20.25 5 20.25H20C20.3978 20.25 20.7794 20.092 21.0607 19.8107C21.342 19.5294 21.5 19.1478 21.5 18.75V14.25C21.5 13.8522 21.342 13.4706 21.0607 13.1893C20.7794 12.908 20.3978 12.75 20 12.75ZM20 18.75H5V14.25H20V18.75ZM20 3.75H5C4.60218 3.75 4.22064 3.90804 3.93934 4.18934C3.65804 4.47064 3.5 4.85218 3.5 5.25V9.75C3.5 10.1478 3.65804 10.5294 3.93934 10.8107C4.22064 11.092 4.60218 11.25 5 11.25H20C20.3978 11.25 20.7794 11.092 21.0607 10.8107C21.342 10.5294 21.5 10.1478 21.5 9.75V5.25C21.5 4.85218 21.342 4.47064 21.0607 4.18934C20.7794 3.90804 20.3978 3.75 20 3.75ZM20 9.75H5V5.25H20V9.75ZM18.5 7.5C18.5 7.7225 18.434 7.94001 18.3104 8.12502C18.1868 8.31002 18.0111 8.45422 17.8055 8.53936C17.6 8.62451 17.3738 8.64679 17.1555 8.60338C16.9373 8.55998 16.7368 8.45283 16.5795 8.2955C16.4222 8.13816 16.315 7.93771 16.2716 7.71948C16.2282 7.50125 16.2505 7.27505 16.3356 7.06948C16.4208 6.86391 16.565 6.68821 16.75 6.5646C16.935 6.44098 17.1525 6.375 17.375 6.375C17.6734 6.375 17.9595 6.49353 18.1705 6.7045C18.3815 6.91548 18.5 7.20163 18.5 7.5ZM18.5 16.5C18.5 16.7225 18.434 16.94 18.3104 17.125C18.1868 17.31 18.0111 17.4542 17.8055 17.5394C17.6 17.6245 17.3738 17.6468 17.1555 17.6034C16.9373 17.56 16.7368 17.4528 16.5795 17.2955C16.4222 17.1382 16.315 16.9377 16.2716 16.7195C16.2282 16.5012 16.2505 16.275 16.3356 16.0695C16.4208 15.8639 16.565 15.6882 16.75 15.5646C16.935 15.441 17.1525 15.375 17.375 15.375C17.6734 15.375 17.9595 15.4935 18.1705 15.7045C18.3815 15.9155 18.5 16.2016 18.5 16.5Z" fill="white"/>
</svg>
