<svg width="25" height="24" viewBox="0 0 25 24" fill="none" xmlns="http://www.w3.org/2000/svg">
<path d="M21.0603 10.189L13.5603 2.68899C13.279 2.4079 12.8977 2.25 12.5 2.25C12.1024 2.25 11.721 2.4079 11.4397 2.68899L3.9397 10.189C3.79973 10.3279 3.68878 10.4933 3.6133 10.6755C3.53782 10.8577 3.49931 11.053 3.50001 11.2502V20.2502C3.50001 20.4492 3.57903 20.6399 3.71968 20.7806C3.86033 20.9212 4.0511 21.0002 4.25001 21.0002H20.75C20.9489 21.0002 21.1397 20.9212 21.2803 20.7806C21.421 20.6399 21.5 20.4492 21.5 20.2502V11.2502C21.5007 11.053 21.4622 10.8577 21.3867 10.6755C21.3112 10.4933 21.2003 10.3279 21.0603 10.189ZM20 19.5002H5.00001V11.2502L12.5 3.75024L20 11.2502V19.5002Z" fill="white"/>
</svg>
