<svg width="25" height="24" viewBox="0 0 25 24" fill="none" xmlns="http://www.w3.org/2000/svg">
<path d="M22.0308 20.4696L17.3368 15.7765C18.6973 14.1431 19.3757 12.048 19.2309 9.92715C19.0861 7.80629 18.1293 5.82289 16.5593 4.38956C14.9894 2.95623 12.9274 2.18333 10.8021 2.23163C8.67687 2.27993 6.65205 3.14571 5.14888 4.64888C3.64571 6.15205 2.77993 8.17687 2.73163 10.3021C2.68333 12.4274 3.45623 14.4894 4.88956 16.0593C6.32289 17.6293 8.30629 18.5861 10.4272 18.7309C12.548 18.8757 14.6431 18.1973 16.2765 16.8368L20.9696 21.5308C21.0393 21.6005 21.122 21.6558 21.213 21.6935C21.3041 21.7312 21.4017 21.7506 21.5002 21.7506C21.5988 21.7506 21.6963 21.7312 21.7874 21.6935C21.8784 21.6558 21.9612 21.6005 22.0308 21.5308C22.1005 21.4612 22.1558 21.3784 22.1935 21.2874C22.2312 21.1963 22.2506 21.0988 22.2506 21.0002C22.2506 20.9017 22.2312 20.8041 22.1935 20.713C22.1558 20.622 22.1005 20.5393 22.0308 20.4696ZM4.25021 10.5002C4.25021 9.16519 4.64609 7.86015 5.38779 6.75011C6.12949 5.64008 7.1837 4.77492 8.4171 4.26403C9.6505 3.75314 11.0077 3.61946 12.3171 3.87991C13.6264 4.14036 14.8292 4.78324 15.7732 5.72724C16.7172 6.67125 17.3601 7.87398 17.6205 9.18335C17.881 10.4927 17.7473 11.8499 17.2364 13.0833C16.7255 14.3167 15.8603 15.3709 14.7503 16.1126C13.6403 16.8543 12.3352 17.2502 11.0002 17.2502C9.21061 17.2482 7.49488 16.5364 6.22944 15.271C4.964 14.0056 4.2522 12.2898 4.25021 10.5002Z" fill="white"/>
</svg>
