<svg width="25" height="24" viewBox="0 0 25 24" fill="none" xmlns="http://www.w3.org/2000/svg">
<path d="M9.49961 19.4996C9.49961 19.6985 9.42059 19.8893 9.27994 20.0299C9.13928 20.1706 8.94852 20.2496 8.74961 20.2496H4.24961C3.85477 20.2493 3.46694 20.1452 3.12509 19.9476C2.78323 19.7501 2.49939 19.466 2.30208 19.124C2.10476 18.782 2.00092 18.3941 2.00098 17.9992C2.00104 17.6044 2.105 17.2165 2.30242 16.8746L5.51711 11.3199L4.19992 11.6715C4.10451 11.6969 4.00501 11.7034 3.9071 11.6904C3.8092 11.6774 3.71481 11.6453 3.62932 11.5959C3.45667 11.496 3.33076 11.3317 3.27929 11.139C3.22783 10.9463 3.25501 10.741 3.35488 10.5684C3.45474 10.3957 3.6191 10.2698 3.81179 10.2183L6.88398 9.39615C6.97915 9.37063 7.07841 9.36412 7.1761 9.37698C7.27378 9.38984 7.36798 9.42182 7.4533 9.4711C7.53862 9.52038 7.6134 9.58598 7.67335 9.66417C7.73331 9.74236 7.77727 9.83159 7.80273 9.92677L8.62679 12.999C8.65282 13.0946 8.65965 13.1944 8.64688 13.2926C8.63411 13.3909 8.602 13.4856 8.5524 13.5714C8.5028 13.6572 8.4367 13.7323 8.35791 13.7924C8.27912 13.8525 8.1892 13.8963 8.09336 13.9215C8.02968 13.938 7.96416 13.9465 7.89836 13.9468C7.73337 13.9466 7.57303 13.8921 7.44219 13.7916C7.31135 13.691 7.2173 13.5502 7.17461 13.3908L6.81836 12.0643L3.60367 17.6246C3.53799 17.7383 3.50334 17.8673 3.50318 17.9987C3.50303 18.13 3.53737 18.2591 3.60277 18.373C3.66817 18.4869 3.76234 18.5817 3.87586 18.6478C3.98938 18.7138 4.11826 18.749 4.24961 18.7496H8.74961C8.94852 18.7496 9.13928 18.8286 9.27994 18.9693C9.42059 19.1099 9.49961 19.3007 9.49961 19.4996ZM22.693 16.8746L20.5237 13.1246C20.4199 12.9613 20.2571 12.8445 20.0692 12.7985C19.8813 12.7525 19.6829 12.7808 19.5154 12.8776C19.3479 12.9744 19.2243 13.1322 19.1704 13.318C19.1165 13.5038 19.1365 13.7032 19.2262 13.8746L21.3955 17.6246C21.4612 17.7383 21.4959 17.8673 21.496 17.9987C21.4962 18.13 21.4618 18.2591 21.3964 18.373C21.331 18.4869 21.2369 18.5817 21.1234 18.6478C21.0098 18.7138 20.881 18.749 20.7496 18.7496H14.3099L15.2793 17.7802C15.42 17.6396 15.4991 17.4489 15.4992 17.2499C15.4993 17.051 15.4204 16.8602 15.2798 16.7194C15.1392 16.5787 14.9484 16.4996 14.7495 16.4995C14.5505 16.4994 14.3597 16.5784 14.219 16.719L11.969 18.969C11.8992 19.0386 11.8439 19.1213 11.8062 19.2124C11.7684 19.3034 11.749 19.401 11.749 19.4996C11.749 19.5981 11.7684 19.6957 11.8062 19.7868C11.8439 19.8778 11.8992 19.9606 11.969 20.0302L14.219 22.2802C14.2887 22.3498 14.3714 22.405 14.4624 22.4427C14.5534 22.4804 14.651 22.4997 14.7495 22.4997C14.848 22.4996 14.9455 22.4802 15.0365 22.4424C15.1275 22.4047 15.2101 22.3494 15.2798 22.2797C15.3494 22.2101 15.4046 22.1273 15.4423 22.0363C15.4799 21.9453 15.4993 21.8478 15.4992 21.7493C15.4992 21.6507 15.4797 21.5532 15.442 21.4622C15.4043 21.3712 15.349 21.2886 15.2793 21.219L14.3099 20.2496H20.7496C21.1444 20.2493 21.5323 20.1452 21.8741 19.9476C22.216 19.7501 22.4998 19.466 22.6971 19.124C22.8945 18.782 22.9983 18.3941 22.9982 17.9992C22.9982 17.6044 22.8942 17.2165 22.6968 16.8746H22.693ZM12.4996 2.99958C12.6314 2.99826 12.7612 3.03237 12.8753 3.09833C12.9894 3.1643 13.0837 3.25971 13.1484 3.37458L16.363 8.92927L15.043 8.5749C14.8533 8.53035 14.6536 8.56145 14.4864 8.66159C14.3191 8.76173 14.1974 8.92305 14.1471 9.11137C14.0968 9.29969 14.1217 9.50021 14.2167 9.67044C14.3117 9.84067 14.4692 9.96724 14.6559 10.0233L17.729 10.8474C17.7923 10.864 17.8575 10.8725 17.923 10.8727C18.088 10.8726 18.2484 10.818 18.3792 10.7175C18.5101 10.617 18.6041 10.4761 18.6468 10.3168L19.4709 7.24271C19.4991 7.14673 19.5079 7.04607 19.4967 6.94664C19.4855 6.84721 19.4545 6.75103 19.4056 6.66376C19.3566 6.57649 19.2907 6.4999 19.2117 6.43849C19.1327 6.37709 19.0422 6.33211 18.9456 6.30621C18.8489 6.28031 18.7481 6.27402 18.649 6.28769C18.5498 6.30137 18.4545 6.33474 18.3684 6.38584C18.2824 6.43694 18.2075 6.50474 18.148 6.58524C18.0886 6.66574 18.0459 6.75732 18.0224 6.85458L17.6662 8.18302L14.4468 2.62458C14.2491 2.28318 13.9652 1.99975 13.6234 1.80271C13.2817 1.60567 12.8941 1.50195 12.4996 1.50195C12.1051 1.50195 11.7176 1.60567 11.3758 1.80271C11.034 1.99975 10.7501 2.28318 10.5524 2.62458L8.38117 6.37458C8.28788 6.54638 8.26536 6.74782 8.3184 6.93598C8.37144 7.12413 8.49585 7.28415 8.66514 7.38193C8.83442 7.47971 9.03519 7.50753 9.22468 7.45946C9.41417 7.41139 9.5774 7.29123 9.67961 7.12458L11.8509 3.37458C11.9155 3.25971 12.0098 3.1643 12.1239 3.09833C12.2381 3.03237 12.3678 2.99826 12.4996 2.99958Z" fill="white"/>
</svg>
