<svg width="25" height="24" viewBox="0 0 25 24" fill="none" xmlns="http://www.w3.org/2000/svg">
<path d="M17.0002 15.0001C16.4999 14.9999 16.0047 15.1001 15.5438 15.2948C15.0829 15.4895 14.6658 15.7747 14.3171 16.1335L9.99522 13.3557C10.3352 12.4839 10.3352 11.5162 9.99522 10.6444L14.3171 7.86664C14.9663 8.53162 15.8392 8.93187 16.7668 8.98979C17.6943 9.0477 18.6103 8.75915 19.3371 8.18009C20.064 7.60102 20.5499 6.77269 20.7007 5.85569C20.8516 4.93869 20.6565 3.99835 20.1534 3.21698C19.6503 2.43562 18.875 1.86889 17.9778 1.62668C17.0806 1.38447 16.1254 1.48403 15.2975 1.90606C14.4695 2.32809 13.8277 3.04252 13.4966 3.91084C13.1655 4.77917 13.1685 5.73951 13.5052 6.6057L9.18335 9.38351C8.66291 8.84921 7.99496 8.48224 7.26489 8.32952C6.53481 8.1768 5.77578 8.24527 5.08481 8.52617C4.39385 8.80707 3.80235 9.28764 3.38592 9.90645C2.9695 10.5253 2.74707 11.2542 2.74707 12.0001C2.74707 12.746 2.9695 13.4749 3.38592 14.0937C3.80235 14.7125 4.39385 15.1931 5.08481 15.474C5.77578 15.7549 6.53481 15.8233 7.26489 15.6706C7.99496 15.5179 8.66291 15.1509 9.18335 14.6166L13.5052 17.3944C13.2157 18.1412 13.1729 18.961 13.383 19.7339C13.5931 20.5067 14.0451 21.192 14.6729 21.6894C15.3006 22.1867 16.0712 22.47 16.8716 22.4978C17.672 22.5256 18.4603 22.2964 19.121 21.8437C19.7818 21.3911 20.2802 20.7388 20.5434 19.9823C20.8066 19.2259 20.8206 18.4051 20.5836 17.64C20.3465 16.875 19.8707 16.206 19.2259 15.731C18.5811 15.2559 17.8011 14.9998 17.0002 15.0001ZM17.0002 3.00007C17.4452 3.00007 17.8802 3.13203 18.2503 3.37927C18.6203 3.6265 18.9087 3.9779 19.079 4.38904C19.2493 4.80017 19.2938 5.25257 19.207 5.68903C19.1202 6.12548 18.9059 6.5264 18.5912 6.84106C18.2765 7.15573 17.8756 7.37002 17.4392 7.45684C17.0027 7.54366 16.5503 7.4991 16.1392 7.3288C15.7281 7.15851 15.3767 6.87012 15.1294 6.50011C14.8822 6.1301 14.7502 5.69508 14.7502 5.25007C14.7502 4.65334 14.9873 4.08104 15.4092 3.65908C15.8312 3.23713 16.4035 3.00007 17.0002 3.00007ZM6.50023 14.2501C6.05522 14.2501 5.6202 14.1181 5.25019 13.8709C4.88018 13.6236 4.59179 13.2722 4.4215 12.8611C4.2512 12.45 4.20664 11.9976 4.29346 11.5611C4.38028 11.1247 4.59457 10.7238 4.90924 10.4091C5.2239 10.0944 5.62481 9.88012 6.06127 9.79331C6.49773 9.70649 6.95013 9.75105 7.36126 9.92134C7.7724 10.0916 8.1238 10.38 8.37103 10.75C8.61827 11.1201 8.75023 11.5551 8.75023 12.0001C8.75023 12.5968 8.51317 13.1691 8.09122 13.5911C7.66926 14.013 7.09696 14.2501 6.50023 14.2501ZM17.0002 21.0001C16.5552 21.0001 16.1202 20.8681 15.7502 20.6209C15.3802 20.3736 15.0918 20.0222 14.9215 19.6111C14.7512 19.2 14.7066 18.7476 14.7935 18.3111C14.8803 17.8747 15.0946 17.4738 15.4092 17.1591C15.7239 16.8444 16.1248 16.6301 16.5613 16.5433C16.9977 16.4565 17.4501 16.501 17.8613 16.6713C18.2724 16.8416 18.6238 17.13 18.871 17.5C19.1183 17.8701 19.2502 18.3051 19.2502 18.7501C19.2502 19.3468 19.0132 19.9191 18.5912 20.3411C18.1693 20.763 17.597 21.0001 17.0002 21.0001Z" fill="white"/>
</svg>
