<svg width="25" height="24" viewBox="0 0 25 24" fill="none" xmlns="http://www.w3.org/2000/svg">
<path d="M22.0306 10.281L17.5306 14.781C17.3899 14.9218 17.199 15.0008 17 15.0008C16.801 15.0008 16.6101 14.9218 16.4694 14.781C16.3286 14.6403 16.2496 14.4494 16.2496 14.2504C16.2496 14.0514 16.3286 13.8605 16.4694 13.7198L19.6897 10.5004H15.9688C14.1394 10.4999 12.3617 11.1075 10.9153 12.2275C9.46889 13.3476 8.43578 14.9166 7.97844 16.6879C7.92871 16.8806 7.80447 17.0457 7.63305 17.1468C7.46163 17.2479 7.25707 17.2767 7.06437 17.227C6.87168 17.1773 6.70663 17.053 6.60554 16.8816C6.50444 16.7102 6.47558 16.5056 6.52531 16.3129C7.06495 14.219 8.28571 12.3641 9.99537 11.0403C11.705 9.71639 13.8064 8.99878 15.9688 9.00042H19.6916L16.4694 5.78104C16.3997 5.71136 16.3444 5.62863 16.3067 5.53759C16.269 5.44654 16.2496 5.34896 16.2496 5.25042C16.2496 5.15187 16.269 5.05429 16.3067 4.96324C16.3444 4.8722 16.3997 4.78947 16.4694 4.71979C16.6101 4.57906 16.801 4.5 17 4.5C17.0985 4.5 17.1961 4.51941 17.2872 4.55712C17.3782 4.59483 17.4609 4.65011 17.5306 4.71979L22.0306 9.21979C22.1004 9.28945 22.1557 9.37216 22.1934 9.46321C22.2312 9.55426 22.2506 9.65186 22.2506 9.75042C22.2506 9.84898 22.2312 9.94657 22.1934 10.0376C22.1557 10.1287 22.1004 10.2114 22.0306 10.281ZM18.5 19.5004H4.25V8.25042C4.25 8.0515 4.17098 7.86074 4.03033 7.72009C3.88968 7.57943 3.69891 7.50042 3.5 7.50042C3.30109 7.50042 3.11032 7.57943 2.96967 7.72009C2.82902 7.86074 2.75 8.0515 2.75 8.25042V20.2504C2.75 20.4493 2.82902 20.6401 2.96967 20.7807C3.11032 20.9214 3.30109 21.0004 3.5 21.0004H18.5C18.6989 21.0004 18.8897 20.9214 19.0303 20.7807C19.171 20.6401 19.25 20.4493 19.25 20.2504C19.25 20.0515 19.171 19.8607 19.0303 19.7201C18.8897 19.5794 18.6989 19.5004 18.5 19.5004Z" fill="white"/>
</svg>
