<svg width="25" height="24" viewBox="0 0 25 24" fill="none" xmlns="http://www.w3.org/2000/svg">
<path d="M21.5 13.4996V19.4996C21.5 19.6985 21.421 19.8893 21.2803 20.0299C21.1397 20.1706 20.9489 20.2496 20.75 20.2496H4.25C4.05109 20.2496 3.86032 20.1706 3.71967 20.0299C3.57902 19.8893 3.5 19.6985 3.5 19.4996V13.4996C3.5 13.3007 3.57902 13.1099 3.71967 12.9693C3.86032 12.8286 4.05109 12.7496 4.25 12.7496C4.44891 12.7496 4.63968 12.8286 4.78033 12.9693C4.92098 13.1099 5 13.3007 5 13.4996V18.7496H20V13.4996C20 13.3007 20.079 13.1099 20.2197 12.9693C20.3603 12.8286 20.5511 12.7496 20.75 12.7496C20.9489 12.7496 21.1397 12.8286 21.2803 12.9693C21.421 13.1099 21.5 13.3007 21.5 13.4996ZM9.28063 7.28024L11.75 4.80993V13.4996C11.75 13.6985 11.829 13.8893 11.9697 14.0299C12.1103 14.1706 12.3011 14.2496 12.5 14.2496C12.6989 14.2496 12.8897 14.1706 13.0303 14.0299C13.171 13.8893 13.25 13.6985 13.25 13.4996V4.80993L15.7194 7.28024C15.8601 7.42097 16.051 7.50003 16.25 7.50003C16.449 7.50003 16.6399 7.42097 16.7806 7.28024C16.9214 7.13951 17.0004 6.94864 17.0004 6.74961C17.0004 6.55059 16.9214 6.35972 16.7806 6.21899L13.0306 2.46899C12.961 2.39926 12.8783 2.34394 12.7872 2.30619C12.6962 2.26845 12.5986 2.24902 12.5 2.24902C12.4014 2.24902 12.3038 2.26845 12.2128 2.30619C12.1217 2.34394 12.039 2.39926 11.9694 2.46899L8.21937 6.21899C8.07864 6.35972 7.99958 6.55059 7.99958 6.74961C7.99958 6.94864 8.07864 7.13951 8.21937 7.28024C8.36011 7.42097 8.55098 7.50003 8.75 7.50003C8.94902 7.50003 9.13989 7.42097 9.28063 7.28024Z" fill="white"/>
</svg>
