<svg width="25" height="24" viewBox="0 0 25 24" fill="none" xmlns="http://www.w3.org/2000/svg">
<g clip-path="url(#clip0_253_11752)">
<path d="M11.4921 14.8053C12.4973 14.1361 13.2605 13.1612 13.6687 12.0248C14.077 10.8883 14.1087 9.65061 13.7591 8.49474C13.4095 7.33887 12.6973 6.32618 11.7276 5.60642C10.758 4.88666 9.5825 4.49805 8.37492 4.49805C7.16735 4.49805 5.99184 4.88666 5.02221 5.60642C4.05258 6.32618 3.34032 7.33887 2.99076 8.49474C2.6412 9.65061 2.67288 10.8883 3.08114 12.0248C3.4894 13.1612 4.25255 14.1361 5.25774 14.8053C3.43945 15.4755 1.88659 16.7156 0.830862 18.3406C0.775377 18.4231 0.736837 18.5158 0.717482 18.6133C0.698127 18.7108 0.698344 18.8111 0.718119 18.9085C0.737895 19.0059 0.776835 19.0984 0.832676 19.1807C0.888516 19.2629 0.960144 19.3332 1.0434 19.3875C1.12665 19.4418 1.21986 19.479 1.31762 19.497C1.41538 19.5149 1.51573 19.5133 1.61285 19.4921C1.70996 19.4709 1.8019 19.4307 1.88332 19.3737C1.96473 19.3167 2.03401 19.244 2.08711 19.16C2.7681 18.1126 3.69995 17.2519 4.79802 16.6561C5.8961 16.0603 7.12562 15.7482 8.37492 15.7482C9.62423 15.7482 10.8538 16.0603 11.9518 16.6561C13.0499 17.2519 13.9817 18.1126 14.6627 19.16C14.7727 19.3235 14.9427 19.4371 15.1358 19.4763C15.3289 19.5156 15.5297 19.4772 15.6947 19.3695C15.8598 19.2619 15.9758 19.0936 16.0178 18.9011C16.0598 18.7085 16.0243 18.5072 15.919 18.3406C14.8633 16.7156 13.3104 15.4755 11.4921 14.8053ZM4.24992 10.1253C4.24992 9.30948 4.49185 8.51195 4.94511 7.8336C5.39837 7.15525 6.04261 6.62654 6.79636 6.31433C7.5501 6.00212 8.3795 5.92043 9.17967 6.07959C9.97984 6.23875 10.7148 6.63162 11.2917 7.20851C11.8686 7.78541 12.2615 8.52041 12.4207 9.32058C12.5798 10.1208 12.4981 10.9502 12.1859 11.7039C11.8737 12.4576 11.345 13.1019 10.6667 13.5551C9.9883 14.0084 9.19077 14.2503 8.37492 14.2503C7.28129 14.2491 6.2328 13.8141 5.45948 13.0408C4.68616 12.2675 4.25117 11.219 4.24992 10.1253ZM23.9506 19.3785C23.784 19.4871 23.581 19.5251 23.3864 19.4841C23.1918 19.4432 23.0214 19.3266 22.9127 19.16C22.2326 18.112 21.3008 17.2509 20.2025 16.6554C19.1042 16.0598 17.8743 15.7487 16.6249 15.7503C16.426 15.7503 16.2352 15.6713 16.0946 15.5307C15.9539 15.39 15.8749 15.1992 15.8749 15.0003C15.8749 14.8014 15.9539 14.6107 16.0946 14.47C16.2352 14.3293 16.426 14.2503 16.6249 14.2503C17.2324 14.2498 17.8322 14.115 18.3816 13.8557C18.931 13.5965 19.4163 13.2191 19.8029 12.7505C20.1895 12.2819 20.4678 11.7337 20.618 11.1451C20.7682 10.5565 20.7865 9.94198 20.6716 9.34547C20.5568 8.74895 20.3116 8.18516 19.9536 7.69439C19.5956 7.20361 19.1337 6.79796 18.6007 6.50642C18.0678 6.21488 17.477 6.04465 16.8707 6.00789C16.2643 5.97113 15.6573 6.06875 15.0931 6.29377C15.001 6.33354 14.902 6.35447 14.8018 6.35531C14.7016 6.35616 14.6022 6.33691 14.5095 6.2987C14.4169 6.26049 14.3328 6.20409 14.2623 6.13284C14.1918 6.0616 14.1363 5.97694 14.0991 5.88388C14.0619 5.79082 14.0437 5.69124 14.0456 5.59103C14.0475 5.49082 14.0695 5.39201 14.1102 5.30044C14.151 5.20887 14.2097 5.12639 14.2828 5.05788C14.356 4.98938 14.4421 4.93623 14.5362 4.90158C15.8275 4.38656 17.2639 4.36803 18.5681 4.84955C19.8723 5.33108 20.952 6.27854 21.5989 7.50916C22.2458 8.73978 22.414 10.1664 22.0711 11.5137C21.7283 12.861 20.8986 14.0336 19.7421 14.8053C21.5604 15.4755 23.1133 16.7156 24.169 18.3406C24.2776 18.5072 24.3156 18.7102 24.2747 18.9048C24.2337 19.0994 24.1171 19.2698 23.9506 19.3785Z" fill="white"/>
</g>
<defs>
<clipPath id="clip0_253_11752">
<rect width="24" height="24" fill="white" transform="translate(0.5)"/>
</clipPath>
</defs>
</svg>
