<svg width="25" height="24" viewBox="0 0 25 24" fill="none" xmlns="http://www.w3.org/2000/svg">
<path d="M22.1484 19.8746C20.7206 17.4062 18.5203 15.6362 15.9525 14.7971C17.2226 14.041 18.2094 12.8888 18.7614 11.5176C19.3134 10.1463 19.3999 8.63175 19.0078 7.20652C18.6157 5.78129 17.7666 4.52418 16.5909 3.62824C15.4151 2.7323 13.9778 2.24707 12.4996 2.24707C11.0215 2.24707 9.58414 2.7323 8.40842 3.62824C7.23269 4.52418 6.38358 5.78129 5.99146 7.20652C5.59935 8.63175 5.68592 10.1463 6.23788 11.5176C6.78984 12.8888 7.77668 14.041 9.04683 14.7971C6.47902 15.6352 4.27871 17.4052 2.85089 19.8746C2.79853 19.96 2.7638 20.055 2.74875 20.154C2.7337 20.253 2.73863 20.3541 2.76326 20.4511C2.78789 20.5482 2.83171 20.6394 2.89214 20.7192C2.95257 20.7991 3.02838 20.8661 3.1151 20.9162C3.20183 20.9663 3.29771 20.9985 3.39709 21.0109C3.49647 21.0234 3.59733 21.0158 3.69373 20.9886C3.79012 20.9614 3.8801 20.9152 3.95835 20.8527C4.0366 20.7902 4.10154 20.7126 4.14933 20.6246C5.91558 17.5721 9.03746 15.7496 12.4996 15.7496C15.9618 15.7496 19.0837 17.5721 20.85 20.6246C20.8977 20.7126 20.9627 20.7902 21.0409 20.8527C21.1192 20.9152 21.2092 20.9614 21.3056 20.9886C21.402 21.0158 21.5028 21.0234 21.6022 21.0109C21.7016 20.9985 21.7975 20.9663 21.8842 20.9162C21.9709 20.8661 22.0467 20.7991 22.1072 20.7192C22.1676 20.6394 22.2114 20.5482 22.236 20.4511C22.2607 20.3541 22.2656 20.253 22.2505 20.154C22.2355 20.055 22.2008 19.96 22.1484 19.8746ZM7.24964 8.99962C7.24964 7.96127 7.55755 6.94624 8.13443 6.08288C8.71131 5.21952 9.53124 4.54661 10.4906 4.14925C11.4499 3.75189 12.5055 3.64793 13.5239 3.8505C14.5423 4.05307 15.4777 4.55308 16.212 5.28731C16.9462 6.02154 17.4462 6.957 17.6488 7.9754C17.8513 8.9938 17.7474 10.0494 17.35 11.0087C16.9527 11.968 16.2797 12.788 15.4164 13.3648C14.553 13.9417 13.538 14.2496 12.4996 14.2496C11.1077 14.2481 9.77322 13.6945 8.78898 12.7103C7.80473 11.726 7.25113 10.3916 7.24964 8.99962Z" fill="white"/>
</svg>
